<mxfile host="app.diagrams.net" agent="Mozilla/5.0 (X11; Linux x86_64) AppleWebKit/537.36 (KHTML, like Gecko) Chrome/139.0.0.0 Safari/537.36" version="28.1.2">
  <diagram name="Page-1" id="zjhEiSqYGr_TzLNvlHRO">
    <mxGraphModel dx="1426" dy="764" grid="1" gridSize="10" guides="1" tooltips="1" connect="1" arrows="1" fold="1" page="1" pageScale="1" pageWidth="827" pageHeight="1169" math="0" shadow="0">
      <root>
        <mxCell id="0" />
        <mxCell id="1" parent="0" />
        <mxCell id="-HXgIVwAkYsGjhqoje9E-2" value="" style="rounded=0;whiteSpace=wrap;html=1;" parent="1" vertex="1">
          <mxGeometry x="260" y="110" width="350" height="530" as="geometry" />
        </mxCell>

        <mxCell id="lJTU-FsNYYgIzt13IAq8-3" value="" style="rounded=0;whiteSpace=wrap;html=1;fillColor=#f5f5f5;fontColor=#333333;strokeColor=#666666;" vertex="1" parent="1">
          <mxGeometry x="330" y="170" width="210" height="120" as="geometry" />
        </mxCell>
        <mxCell id="lJTU-FsNYYgIzt13IAq8-4" value="&lt;b&gt;&lt;font style=&quot;font-size: 14px;&quot;&gt;&amp;nbsp;Table&lt;/font&gt;&lt;/b&gt;" style="text;html=1;align=center;verticalAlign=middle;whiteSpace=wrap;rounded=0;" vertex="1" parent="1">
          <mxGeometry x="387" y="140" width="96" height="20" as="geometry" />
        </mxCell>
        <mxCell id="lJTU-FsNYYgIzt13IAq8-5" value="" style="whiteSpace=wrap;html=1;aspect=fixed;" vertex="1" parent="1">
          <mxGeometry x="395" y="190" width="80" height="80" as="geometry" />
        </mxCell>
        <mxCell id="lJTU-FsNYYgIzt13IAq8-6" value="Keys" style="text;html=1;align=center;verticalAlign=middle;whiteSpace=wrap;rounded=0;" vertex="1" parent="1">
          <mxGeometry x="408" y="215" width="57" height="35" as="geometry" />
        </mxCell>
        <mxCell id="lJTU-FsNYYgIzt13IAq8-7" value="" style="endArrow=classic;html=1;rounded=0;exitX=0;exitY=0.5;exitDx=0;exitDy=0;entryX=0;entryY=0.5;entryDx=0;entryDy=0;" edge="1" parent="1" source="lJTU-FsNYYgIzt13IAq8-5" target="lJTU-FsNYYgIzt13IAq8-8">
          <mxGeometry width="50" height="50" relative="1" as="geometry">
            <mxPoint x="390" y="420" as="sourcePoint" />
            <mxPoint x="250" y="390" as="targetPoint" />
            <Array as="points">
              <mxPoint x="290" y="230" />
              <mxPoint x="290" y="485" />
            </Array>
          </mxGeometry>
        </mxCell>
        <mxCell id="lJTU-FsNYYgIzt13IAq8-8" value="" style="rounded=0;whiteSpace=wrap;html=1;fillColor=#f5f5f5;fontColor=#333333;strokeColor=#666666;" vertex="1" parent="1">
          <mxGeometry x="331.5" y="355" width="210" height="260" as="geometry" />
        </mxCell>
        <mxCell id="lJTU-FsNYYgIzt13IAq8-10" value="" style="endArrow=none;html=1;rounded=0;exitX=0;exitY=0.25;exitDx=0;exitDy=0;entryX=1;entryY=0.25;entryDx=0;entryDy=0;" edge="1" parent="1" source="lJTU-FsNYYgIzt13IAq8-8" target="lJTU-FsNYYgIzt13IAq8-8">
          <mxGeometry width="50" height="50" relative="1" as="geometry">
            <mxPoint x="390" y="435" as="sourcePoint" />
            <mxPoint x="440" y="385" as="targetPoint" />
          </mxGeometry>
        </mxCell>
        <mxCell id="lJTU-FsNYYgIzt13IAq8-11" value="" style="endArrow=none;html=1;rounded=0;entryX=1;entryY=0.5;entryDx=0;entryDy=0;" edge="1" parent="1" target="lJTU-FsNYYgIzt13IAq8-8">
          <mxGeometry width="50" height="50" relative="1" as="geometry">
            <mxPoint x="330" y="485" as="sourcePoint" />
            <mxPoint x="440" y="385" as="targetPoint" />
          </mxGeometry>
        </mxCell>
        <mxCell id="lJTU-FsNYYgIzt13IAq8-13" value="" style="endArrow=none;html=1;rounded=0;exitX=0;exitY=0.75;exitDx=0;exitDy=0;entryX=1;entryY=0.75;entryDx=0;entryDy=0;" edge="1" parent="1" source="lJTU-FsNYYgIzt13IAq8-8" target="lJTU-FsNYYgIzt13IAq8-8">
          <mxGeometry width="50" height="50" relative="1" as="geometry">
            <mxPoint x="390" y="435" as="sourcePoint" />
            <mxPoint x="440" y="385" as="targetPoint" />
          </mxGeometry>
        </mxCell>
        <mxCell id="lJTU-FsNYYgIzt13IAq8-14" value="&lt;font style=&quot;font-size: 14px;&quot;&gt;Serialized Graph 1&lt;/font&gt;" style="text;html=1;align=center;verticalAlign=middle;whiteSpace=wrap;rounded=0;" vertex="1" parent="1">
          <mxGeometry x="365" y="375" width="140" height="30" as="geometry" />
        </mxCell>
        <mxCell id="lJTU-FsNYYgIzt13IAq8-15" value="&lt;font style=&quot;font-size: 14px;&quot;&gt;Serialized Graph 2&lt;/font&gt;" style="text;html=1;align=center;verticalAlign=middle;whiteSpace=wrap;rounded=0;" vertex="1" parent="1">
          <mxGeometry x="366.5" y="435" width="140" height="30" as="geometry" />
        </mxCell>
        <mxCell id="lJTU-FsNYYgIzt13IAq8-16" value="&lt;font style=&quot;font-size: 14px;&quot;&gt;Serialized Graph 3&lt;/font&gt;" style="text;html=1;align=center;verticalAlign=middle;whiteSpace=wrap;rounded=0;" vertex="1" parent="1">
          <mxGeometry x="365" y="570" width="140" height="30" as="geometry" />
        </mxCell>
        <mxCell id="lJTU-FsNYYgIzt13IAq8-17" value="&lt;font style=&quot;font-size: 14px;&quot;&gt;&lt;b style=&quot;&quot;&gt;. . .&lt;/b&gt;&lt;/font&gt;" style="text;html=1;align=center;verticalAlign=middle;whiteSpace=wrap;rounded=0;" vertex="1" parent="1">
          <mxGeometry x="395" y="505" width="60" height="30" as="geometry" />
        </mxCell>
        <mxCell id="lJTU-FsNYYgIzt13IAq8-18" value="&lt;b&gt;&lt;font style=&quot;font-size: 14px;&quot;&gt;Global Cache&lt;/font&gt;&lt;/b&gt;" style="text;html=1;align=center;verticalAlign=middle;whiteSpace=wrap;rounded=0;" vertex="1" parent="1">
          <mxGeometry x="387" y="327" width="126" height="20" as="geometry" />
        </mxCell>
        <mxCell id="cacheEntryHeader1" value="<font style='font-size: 14px;'>CacheEntryHeader</font>" style="rounded=0;whiteSpace=wrap;html=1;fillColor=#bbdefb;fontColor=#333333;strokeColor=#666666;" vertex="1" parent="1">
  <mxGeometry x="365" y="375" width="140" height="20" as="geometry" />
</mxCell>
<mxCell id="cacheEntryHeader2" value="<font style='font-size: 14px;'>CacheEntryHeader</font>" style="rounded=0;whiteSpace=wrap;html=1;fillColor=#bbdefb;fontColor=#333333;strokeColor=#666666;" vertex="1" parent="1">
  <mxGeometry x="366.5" y="435" width="140" height="20" as="geometry" />
</mxCell>
<mxCell id="cacheEntryHeader3" value="<font style='font-size: 14px;'>CacheEntryHeader</font>" style="rounded=0;whiteSpace=wrap;html=1;fillColor=#bbdefb;fontColor=#333333;strokeColor=#666666;" vertex="1" parent="1">
  <mxGeometry x="365" y="570" width="140" height="20" as="geometry" />
</mxCell>
<mxCell id="offsetArrowLabel" value="<font style='font-size: 12px;'>Offset vers CacheEntryHeader</font>" style="text;html=1;align=center;verticalAlign=middle;whiteSpace=wrap;rounded=0;" vertex="1" parent="1">
  <mxGeometry x="320" y="300" width="160" height="20" as="geometry" />
</mxCell>
<mxCell id="cacheHeader" value="<b><font style='font-size: 14px;'>CacheHeader</font></b>" style="rounded=0;whiteSpace=wrap;html=1;fillColor=#ffe0b2;fontColor=#333333;strokeColor=#666666;" vertex="1" parent="1">
  <mxGeometry x="355" y="335" width="140" height="30" as="geometry" />
</mxCell>
      </root>
    </mxGraphModel>
  </diagram>
</mxfile>
